<svg width="348" height="348" xmlns="http://www.w3.org/2000/svg">
 <g>
  <title>background</title>
  <rect x="-1" y="-1" width="350" height="350" id="canvas_background" fill="none"/>
 </g>

 <g>
  <title>Layer 1</title>
  <path d="m5.079,5.776l336.913,0l0,337.67l-336.912,0l-0.001,-337.67z" stroke-width="2" stroke="#000" id="svg_1" fill="none"/>
  <path fill="none" d="m282.734,40.554c0,-8.376 6.966,-15.165 15.56,-15.165c4.126,0 8.084,1.597 11.001,4.441c2.918,2.844 4.558,6.702 4.558,10.724c0,8.376 -6.966,15.165 -15.56,15.165c-8.593,0 -15.559,-6.79 -15.559,-15.165z" stroke-width="2" stroke="#000" id="svg_2"/>
  <path fill="none" stroke-width="2" d="m174.77775,143.56627c52.15534,-136.44023 256.50168,0 0,175.42316c-256.50168,-175.42316 -52.15534,-311.86339 0,-175.42316z" id="svg_3" stroke="#000"/>
 </g>
</svg>