<svg width="348" height="348" xmlns="http://www.w3.org/2000/svg">

 <g>
  <title>background</title>
  <rect fill="none" id="canvas_background" height="402" width="582" y="-1" x="-1"/>
 </g>
 <g>
  <title>Layer 1</title>
  <path fill="none" id="svg_1" stroke="#000" stroke-width="2" d="m5.079,5.776l336.913,0l0,337.67l-336.912,0l-0.001,-337.67z"/>
  <path id="svg_2" stroke="#000" stroke-width="2" d="m282.734,40.554c0,-8.376 6.966,-15.165 15.56,-15.165c4.126,0 8.084,1.597 11.001,4.441c2.918,2.844 4.558,6.702 4.558,10.724c0,8.376 -6.966,15.165 -15.56,15.165c-8.593,0 -15.559,-6.79 -15.559,-15.165z"/>
  <path stroke="#000" id="svg_3" d="m174.777746,143.566272c52.155341,-136.440236 256.501679,0 0,175.42316c-256.501679,-175.42316 -52.155341,-311.863396 0,-175.42316z" stroke-width="2" fill="none"/>
 </g>
</svg>