<svg width="348" height="348" xmlns="http://www.w3.org/2000/svg">

 <g>
  <title>background</title>
  <rect fill="none" id="canvas_background" height="602" width="802" y="-1" x="-1"/>
 </g>
 <g>
  <title>Layer 1</title>
  <path fill="none" id="svg_1" stroke="#000" stroke-width="2" d="m4.65347,6.33156l336.913,0l0,337.67l-336.912,0l-0.001,-337.67z"/>
  <path fill="none" id="svg_2" stroke="#000" stroke-width="2" d="m282.734,40.554c0,-8.376 6.966,-15.165 15.56,-15.165c4.126,0 8.084,1.597 11.001,4.441c2.918,2.844 4.558,6.702 4.558,10.724c0,8.376 -6.966,15.165 -15.56,15.165c-8.593,0 -15.559,-6.79 -15.559,-15.165z"/>
  <path stroke="#000" fill="none" id="svg_3" stroke-width="2" d="m14.079,13.776l225.913,0l0,39.67001l-225.91233,0l-0.00067,-39.67001z"/>
  <path stroke="#000" fill="none" id="svg_5" stroke-width="2" d="m14.079,296.7919l225.913,0l0,39.67001l-225.91233,0l-0.00067,-39.67001z"/>
  <line stroke-linecap="null" stroke-linejoin="null" id="svg_7" y2="295.50207" x2="24.5" y1="53.5" x1="24.5" stroke-width="2" stroke="#000" fill="none"/>
  <line stroke-linecap="null" stroke-linejoin="null" id="svg_8" y2="295.50207" x2="229.12344" y1="53.5" x1="229.12344" stroke-width="2" stroke="#000" fill="none"/>
  <path stroke="#000" fill="none" id="svg_9" stroke-width="2" d="m248.73399,131.45818c0,-21.02654 17.48697,-38.06918 39.06076,-38.06918c10.35763,0 20.29352,4.009 27.61616,11.14838c7.32515,7.13938 11.44209,16.82424 11.44209,26.9208c0,21.02654 -17.48697,38.06918 -39.06076,38.06918c-21.57128,0 -39.05825,-17.04515 -39.05825,-38.06918z"/>
  <line stroke="#000" transform="rotate(-51.776004791259766 281.0787658691406,126.74573516845702) " stroke-linecap="null" stroke-linejoin="null" id="svg_12" y2="126.74572" x2="318.74144" y1="126.74572" x1="243.41607" fill-opacity="null" stroke-opacity="null" stroke-width="2" fill="none"/>
  <line stroke="#000" transform="rotate(-51.776004791259766 292.1427307128907,135.25645446777344) " stroke-linecap="null" stroke-linejoin="null" id="svg_14" y2="135.25636" x2="329.80527" y1="135.25636" x1="254.4799" fill-opacity="null" stroke-opacity="null" stroke-width="2" fill="none"/>
  <line stroke="#000" transform="rotate(-51.776004791259766 304.8609313964844,108.03017425537112) " stroke-linecap="null" stroke-linejoin="null" id="svg_15" y2="108.03017" x2="309.21539" y1="108.03017" x1="300.50647" fill-opacity="null" stroke-opacity="null" stroke-width="2" fill="none"/>
  <path id="svg_21" d="m187.114,109.67402c-4.15562,-1.56151 -7.13423,-6.52318 -6.45731,-10.75638c0.42684,-2.66935 9.43219,-18.87419 10.21864,-18.38814c0.25669,0.15864 2.54088,3.93667 5.07599,8.39562c4.06098,7.14277 4.60929,8.47467 4.60929,11.1965c0,5.51703 -4.41537,10.0361 -9.71694,9.94515c-1.54707,-0.02654 -3.22543,-0.20328 -3.72967,-0.39276l0,0zm4.16346,-2.77486c0.13755,-0.71426 -0.18376,-1.0626 -0.98017,-1.0626c-1.8151,0 -4.33293,-2.29887 -4.89546,-4.46972c-0.60006,-2.31571 -2.19108,-2.59111 -2.42609,-0.41995c-0.45277,4.18304 7.53894,9.91304 8.30172,5.95227l0,0z" fill-opacity="null" stroke-opacity="null" stroke-width="2" stroke="#000" fill="none"/>
  <path id="svg_22" d="m85.27172,127.21317c1.92195,-2.20973 2.30827,-5.22525 1.26273,-7.76128l-3.85847,4.49951l-3.80351,-0.73949l-1.26029,-3.66386l3.84871,-4.48906c-2.64737,-0.66604 -5.56397,0.13805 -7.47745,2.33903c-2.01801,2.32038 -2.34825,5.53364 -1.09921,8.14067l-10.05746,11.56564c-1.07016,1.22963 -0.93979,3.09461 0.28985,4.16435c1.22964,1.06899 3.09424,0.93979 4.16404,-0.28985l10.04567,-11.55423c2.76527,0.89129 5.91804,0.1195 7.94538,-2.21142l0,0z" fill-opacity="null" stroke-opacity="null" stroke-width="2" stroke="#000" fill="none"/>
  <path id="svg_23" d="m124.62761,163.56102c-2.6319,-1.41106 0.06678,-4.19748 2.26133,-3.29636c1.63308,-0.00373 3.26618,-0.00127 4.89926,-0.00198c0,-3.21191 0,-6.42382 0,-9.63572c-4.09088,-4.93486 -8.18177,-9.86972 -12.27265,-14.80458c9.25923,-0.03437 18.51854,-0.03433 27.77777,0c-4.01734,4.95924 -8.03468,9.91849 -12.05201,14.87773c0,3.18753 0,6.37505 0,9.56257c2.41128,0.0215 4.82669,-0.05846 7.23443,0.08138c1.89573,0.50925 1.13686,3.62275 -0.7055,3.29454c-5.71402,-0.01988 -11.42987,0.03621 -17.14262,-0.07758l0,0zm11.88144,-17.44514c1.84153,-0.70176 1.58264,-3.7383 -0.39278,-4.04791c-2.97989,-0.82085 -3.62336,4.34864 -0.49129,4.22733c0.30244,0.00199 0.60974,-0.04084 0.88407,-0.17942l0,0z" fill-opacity="null" stroke-opacity="null" stroke-width="2" stroke="#000" fill="none"/>
  <path id="svg_24" d="m191.12325,151.62223c0.14721,-0.57012 0.16027,-1.50393 0.02977,-2.07728l-0.43185,-1.89299c-0.13048,-0.57334 -0.71077,-1.12466 -1.29026,-1.22499l-3.98002,-0.68752c-0.57907,-0.10033 -1.5276,-0.09706 -2.10586,0.00733l-4.31116,0.77643c-0.57949,0.10438 -1.52759,0.11498 -2.10911,0.02447l-4.21819,-0.65738c0.0053,0.02039 0.01468,0.03836 0.01918,0.05875l2.88715,13.71647l1.32126,0.22833c0.57946,0.10035 1.52676,0.09624 2.10624,-0.00731l4.30993,-0.77725c0.57826,-0.10357 1.52759,-0.11417 2.10911,-0.02366l4.62801,0.72182c0.58152,0.0905 0.96853,-0.30751 0.86248,-0.88655l-0.51828,-2.8056c-0.10685,-0.57827 -0.07384,-1.517 0.07257,-2.08711l0.61904,-2.40595l0,0zm-20.7097,-6.27752c-0.57864,0.12232 -0.94852,0.68751 -0.82659,1.26495l6.16092,29.2672l2.18373,0l-6.25145,-29.70517c-0.12397,-0.57989 -0.68958,-0.94934 -1.26661,-0.82699l0,0z" fill-opacity="null" stroke-opacity="null" stroke-width="2" stroke="#000" fill="none"/>
  <path id="svg_25" d="m140.38652,99.92774c1.2232,-0.80471 -1.55235,-1.48548 -1.9645,-2.24543c-1.21311,-1.49206 -1.59104,-3.47531 -1.92902,-5.31724c0.58087,-0.98975 0.34559,-2.01227 0.55606,-3.04093c1.02898,-1.52732 1.59821,-3.3191 2.63231,-4.84093c1.15155,0.24304 2.39675,1.17734 3.55035,1.53233c1.04139,1.87217 -0.86316,3.43116 -0.63923,5.24369c0.43681,1.68986 -0.73338,3.09816 -0.96856,4.67313c0.0082,1.4899 1.3631,2.99815 2.84379,1.97384c-0.07513,-1.0865 -2.18726,-1.42333 -1.24173,-2.95137c0.31112,-1.57985 1.33091,-2.84469 2.10203,-4.17189c-0.43567,-1.55619 0.14415,-3.52878 1.12578,-4.69535c0.99669,0.96284 1.68508,2.65583 1.83758,4.00405c0.01932,1.54552 2.07722,2.57979 2.03808,4.40002c0.15376,1.60927 0.90738,3.14169 1.95254,4.01403c0.54651,1.1359 3.93774,0.54334 2.13157,-0.80613c-1.4915,-1.34601 -3.20756,-2.77343 -3.43404,-4.91844c-0.61874,-1.2733 0.80347,-3.07754 -0.94315,-3.6094c0.10824,-1.72543 -0.34879,-3.68399 0.63449,-5.223c1.41631,-1.21039 3.49053,-1.30012 4.84505,-2.63915c1.64367,-1.08963 2.57674,-2.87488 3.10252,-4.72489c0.79652,-0.89228 2.03356,-2.82094 3.40975,-1.81828c1.3502,0.83492 0.3537,-1.26539 1.12905,-1.72884c-0.63982,-2.30873 -3.23653,-1.20032 -4.85722,-1.77634c-1.47144,-0.98549 -2.99495,-0.41729 -4.06813,0.70837c-0.80373,0.36217 -0.36891,1.3102 0.41959,0.95357c-0.56558,1.87897 -1.34514,3.94671 -3.05945,5.05942c-1.96693,0.86064 -3.0641,-1.68922 -4.23203,-2.79595c-1.27478,-1.24772 -2.06513,-3.06811 -3.67074,-3.92465c-2.23328,-0.56549 -3.93004,1.39555 -5.61672,2.49971c-1.67392,0.83808 -3.6839,1.25226 -4.82587,2.88692c-1.89518,2.27783 -0.69375,5.71451 -2.68657,7.95447c-0.82083,1.24215 -2.62797,2.1367 -2.37964,3.84388c0.88016,1.82825 0.10879,4.01034 0.58939,5.9774c0.35517,1.4216 0.88107,3.24767 2.60271,3.45879c1.3544,0.85866 2.09208,-0.93997 0.65797,-1.46089c-1.73116,-0.76918 -1.96772,-2.93428 -2.10679,-4.5974c-0.38183,-1.64573 0.92219,-2.73454 1.46073,-4.02629c-0.45478,-1.26178 1.14888,-2.97689 2.16604,-2.72147c-0.7602,1.16783 -1.87011,2.68327 -0.07076,3.64515c-0.02362,0.05902 0.264,-1.07801 0.72733,-1.41964c-0.06916,-0.89079 -0.9727,-1.64917 -0.01432,-2.55049c1.6814,-1.12113 1.31079,2.13099 0.96168,3.05316c-0.01847,1.41612 -1.91653,2.54084 -0.94736,3.96c1.06174,1.75033 1.55995,3.75971 1.96736,5.74279c0.58461,1.64502 2.06156,2.84812 3.90843,2.42301l0.30366,-0.00332l0,-0.00001z" fill-opacity="null" stroke-opacity="null" stroke-width="2" stroke="#000" fill="none"/>
  <path id="svg_26" d="m132.98564,207.56868c0,0 -0.60233,-0.9265 0.24093,-1.32933c0.84326,-0.40281 3.61396,-4.04839 5.78232,-4.10882c0,0 0.12046,-3.62542 1.68651,-3.02119c1.56606,0.60425 0.84326,1.08763 0.84326,1.08763c0,0 2.65023,-3.14203 3.37303,0.36254c0,0 0.72278,0.90636 3.49348,-1.69186c2.7707,-2.59822 12.28063,-3.21576 16.86512,1.57102c2.95139,3.08162 7.0472,7.67382 3.85487,11.84307c0,0 1.84796,9.15829 -13.59294,7.78299c0,0 -5.98264,-1.13637 -9.05449,-1.01552c-3.07186,0.12084 -5.60163,1.14805 -4.09581,-0.2417c1.50581,-1.38974 5.54139,-1.38974 10.96232,-0.36254c5.42093,1.02721 14.09441,0.84594 14.09441,-5.31729c0,0 -1.32512,0.48339 -1.92744,0.12085c0,0 0.30115,1.32932 -1.44558,1.20848c-1.74675,-0.12085 -3.37303,-0.66466 -5.18,0.12084c0,0 -0.54209,0.36255 -0.7228,0c0,0 -0.90349,0 -0.60232,-0.36254c0,0 -0.51198,-0.21148 0,-0.60423c0.51198,-0.39275 4.09581,-0.33234 3.97535,-0.36254c-0.12046,-0.03021 0.06023,-0.39275 -0.24093,-0.36254c-0.30117,0.03021 -9.21559,0.57403 -11.56466,-0.12085c0,0 -0.12046,0.81573 -0.60232,0.48339c0,0 -4.45722,0.45317 -5.42093,0.96678c-0.96372,0.51361 -0.63245,0.12085 -0.96372,0.2417c-0.33129,0.12084 -0.69268,0.69487 -1.08419,0.36254c0,0 -1.32512,0.33232 -0.96372,-0.2417c0,0 -0.42162,0.15107 -0.60232,-0.24169c0,0 -0.57221,-0.18126 0.24093,-0.84594c0.81314,-0.66466 4.09581,-0.63444 4.33674,-0.96678c0.24094,-0.33234 0.15058,-0.57403 -0.60232,-0.48339c-0.7529,0.09063 -2.28884,-0.18126 -3.49349,-0.96678c-1.20465,-0.78551 -0.81482,-1.17611 -3.37302,-1.45018c-2.06798,-0.22155 -2.48961,-0.52367 -3.01162,-0.72508c-0.52203,-0.20141 -1.20465,-1.32932 -1.20465,-1.32932z" fill-opacity="null" stroke-opacity="null" stroke-width="2" stroke="#000" fill="none"/>
  <path id="svg_27" d="m52.13116,220.58453c-0.13334,0 -0.20188,-0.13396 -0.20188,-0.29461c0,-0.13393 0.03426,-0.26397 0.13334,-0.26397c0.06854,0 0.17171,0.13003 0.20598,0.26397c0.06854,0.195 0,0.29461 -0.13744,0.29461zm22.79345,7.64384c0.30507,0 0.37359,0.03436 0.20188,0.26394c-0.09908,0.16065 -0.30505,0.29458 -0.40413,0.29458c-0.10316,0 -0.20598,-0.13393 -0.20598,-0.29458c0,-0.16459 0.13745,-0.26394 0.40823,-0.26394zm-21.29834,-9.35014c-0.30505,-0.065 -0.33933,-0.39416 0,-0.49354c0.1717,-0.0306 0.27079,0.06499 0.27079,0.26397c0,0.16457 -0.09909,0.2602 -0.27079,0.22957zm-3.80258,10.39829c0.40823,-0.09565 0.40823,-0.16439 0.27079,-0.39023c-0.10281,-0.16439 -0.13708,-0.36335 -0.06854,-0.42836c0.03426,-0.09956 0.20598,0 0.30505,0.19503c0.13744,0.26397 0.24024,0.29853 0.51103,0.13393c0.16799,-0.09937 0.30505,-0.16455 0.30505,-0.06499c0,0.06499 0.10317,0 0.23652,-0.13393c0.20599,-0.19503 0.24025,-0.62356 0.03427,-0.85315c-0.16762,-0.19503 -1.01834,-0.13001 -1.25486,0.09937c-0.13708,0.1646 -0.24025,0.13022 -0.37359,-0.16436c-0.20598,-0.48981 -0.20598,-0.55858 0.27078,-0.58918c0.40823,0 0.40823,0 0.06854,-0.19896c-0.17134,-0.09565 -0.33932,-0.29458 -0.33932,-0.42461c0,-0.32913 0.47303,-0.52416 0.67901,-0.29457c0.06854,0.09563 0.20189,0.19503 0.33933,0.19503c0.27079,0 1.56363,-1.1132 1.56363,-1.34279c0,-0.09955 0.13372,-0.16454 0.27079,-0.09955c0.16798,0.03455 0.47304,-0.06499 0.7822,-0.22959c0.4384,-0.26395 0.4384,-0.29458 0.20188,-0.72294c-0.16762,-0.29458 -0.37359,-0.39416 -0.85036,-0.39416c-0.54157,0 -0.67901,0.06502 -0.84663,0.45918c-0.06891,0.26394 -0.27488,0.45897 -0.40823,0.45897c-0.23652,0 -0.30505,-0.2944 -0.06854,-0.45897c0.1028,-0.06502 0.17134,-0.29458 0.17134,-0.52417c0,-0.35961 -0.06854,-0.42461 -0.51103,-0.32896c-0.44249,0.06499 -0.44249,0.03436 -0.33933,-0.4592c0.06854,-0.29457 0.16762,-0.55852 0.23653,-0.58915c0.06854,-0.03436 0.13707,-0.32896 0.13707,-0.62354c0,-0.58921 0.20225,-0.68858 0.57622,-0.26397c0.17133,0.22958 0.27451,0.26397 0.33932,0.06499c0.06854,-0.13001 0.30878,-0.16065 0.68274,-0.09566c0.50731,0.13003 0.54157,0.09566 0.47303,-0.29458c-0.03426,-0.22956 -0.0689,-0.49353 -0.10316,-0.55852c0,-0.0994 -0.16762,-0.22959 -0.36987,-0.32899c-0.40823,-0.16454 -0.51103,-0.55852 -0.13744,-0.55852c0.10317,0 0.20224,-0.06502 0.20224,-0.19523c0,-0.0994 0.20599,-0.16439 0.47677,-0.13395c0.37397,0.03455 0.57585,-0.0956 1.08688,-0.78416c0.37397,-0.49356 0.64475,-0.7575 0.67902,-0.62357c0.03426,0.16439 0.20598,0.26002 0.37396,0.26002c0.27079,0 0.30507,-0.09563 0.20599,-0.52398c-0.03464,-0.2946 -0.20599,-0.65417 -0.30915,-0.81877c-0.30507,-0.36349 -0.30507,-0.78811 0,-0.65812c0.24024,0.13022 0.98779,-0.22938 0.98779,-0.45896c0,-0.09956 0.09945,-0.16457 0.23652,-0.16457c0.13745,0 0.20225,0.19895 0.20225,0.45917c0,0.32896 0.06854,0.45899 0.24025,0.36334c0.13334,-0.06876 0.23653,-0.26397 0.23653,-0.39397c0,-0.39418 1.08687,-1.08274 1.35765,-0.88754c0.10319,0.06504 0.20598,0 0.24063,-0.22956c0.09907,-0.45917 0.7129,-0.81877 0.98368,-0.58918c0.13745,0.09563 0.2708,0.06502 0.30544,-0.03436c0.06853,-0.13021 0.33932,-0.22959 0.64437,-0.26024c0.30505,-0.03436 0.71328,-0.16457 0.885,-0.2985c0.64437,-0.42461 1.28913,-0.39398 1.55991,0.06522c0.17171,0.32894 0.24024,0.32894 0.24024,0.09935c0,-0.2946 0.13373,-0.32896 0.94981,-0.22956c1.29285,0.13021 1.49511,0.13021 1.97187,-0.03439c0.30505,-0.09565 0.40822,-0.06501 0.40822,0.19892c0,0.1646 0.09909,0.29461 0.23653,0.29461c0.1028,0 0.20188,-0.09566 0.20188,-0.19521c0,-0.26394 0.54568,-0.39397 1.02244,-0.26394c0.36987,0.13021 0.40413,0.16454 0.30505,1.04832c-0.03426,0.52791 0,0.88752 0.06481,0.88752c0.06853,0 0.13744,-0.22959 0.13744,-0.55855c0,-0.5548 0.37359,-0.78421 0.51103,-0.32897c0.03427,0.1644 0.13334,0.09938 0.20188,-0.16064c0.17172,-0.68876 0.54568,-0.32917 0.44249,0.42461c-0.10279,0.62354 -0.10279,0.62354 0.20226,0.39395c0.1717,-0.09938 0.30504,-0.35957 0.30504,-0.52398c0,-0.16458 0.10319,-0.35978 0.24026,-0.42855c0.27077,-0.12998 0.57621,0.36337 0.47676,0.72312c-0.03426,0.16442 -0.03426,0.2946 0.0648,0.2946c0.06891,0 0.13745,-0.09563 0.13745,-0.16457c0,-0.09565 0.16798,-0.13003 0.37396,-0.06499c0.44213,0.09938 0.50693,0.36332 0.13335,0.52396c-0.09908,0.06894 -0.20225,0.22959 -0.20225,0.36354c0,0.22959 0.0689,0.22959 0.44249,0c0.61011,-0.39397 0.88089,-0.36354 0.98408,0.06499c0.06853,0.22959 0.20224,0.32915 0.33932,0.22959c0.13744,-0.03438 0.44249,0.09956 0.67902,0.32896c0.20598,0.1952 0.51103,0.3596 0.64847,0.3596c0.20225,0 0.20225,0.16459 0.13334,0.62374c-0.06853,0.49356 -0.06853,0.55855 0.13745,0.35962c0.27078,-0.32525 0.37359,-0.29463 0.47304,0.16436c0.03426,0.22959 0.2745,0.39416 0.54529,0.49354c0.30505,0.06522 0.47304,0.22958 0.47304,0.42479c0,0.19895 0.10279,0.42836 0.20598,0.55857c0.27079,0.22956 0.20188,0.91812 -0.10319,1.1477c-0.10279,0.06877 -0.23651,0.03439 -0.27078,-0.06499c-0.06853,-0.09958 -0.30505,-0.09958 -0.74756,0c-0.71328,0.22938 -0.84663,0.29458 -0.67901,0.59291c0.10317,0.19503 1.28949,0.13003 1.9376,-0.09956c0.20225,-0.09939 0.27079,0 0.27079,0.45918c0,0.32894 -0.06854,0.58918 -0.17134,0.58918c-0.06891,0 -0.13372,0.09937 -0.13372,0.26394c0,0.39414 0.16799,0.35957 0.61048,-0.0994c0.23614,-0.26394 0.37358,-0.32913 0.54157,-0.16454c0.17134,0.16454 0.20598,0.16454 0.20598,-0.0994c0,-0.16084 -0.06891,-0.29458 -0.1717,-0.29458c-0.06481,0 -0.13373,-0.13021 -0.13373,-0.26024c0,-0.16455 0.09945,-0.29458 0.23652,-0.29458c0.10317,0 0.24025,0.06499 0.24025,0.16065c0,0.0996 0.13372,0.22958 0.30543,0.26397c0.23615,0.09958 0.30505,0.22959 0.27078,0.62356c-0.0689,0.75373 0.06855,0.98334 0.57585,0.85333c0.24025,-0.06522 0.37358,0 0.27079,0.13001c-0.03054,0.06499 0,0.22959 0.06854,0.2983c0.27488,0.19522 0.1717,0.65423 -0.13335,0.65423c-0.37396,0 -0.47677,0.16454 -0.2745,0.45915c0.13707,0.16457 0.24024,0.19503 0.37358,0.06501c0.30915,-0.32896 0.37397,-0.06501 0.40823,1.24731c0,0.6579 0.06854,1.18209 0.13708,1.18209c0.16798,0 0.10317,0.72312 -0.13708,1.0177c-0.13372,0.16439 -0.13372,0.32503 -0.03426,0.45896c0.24024,0.29461 0,1.14776 -0.30544,1.14776c-0.27077,0 -0.78181,0.62354 -0.78181,0.91814c0,0.3598 -0.4384,0 -0.54157,-0.39398c-0.1028,-0.35959 -0.1028,-0.35959 -0.17171,-0.09956c-0.0648,0.29851 0.30543,1.21665 0.61422,1.47684c0.20224,0.19898 -0.17171,0.52791 -0.4425,0.39398c-0.13745,-0.06499 -0.20225,-0.26002 -0.20225,-0.45897c0,-0.55852 -0.85036,-1.96649 -1.49511,-2.49438c-0.34304,-0.26024 -0.64811,-0.55483 -0.64811,-0.65419c0,-0.19896 -1.08724,-0.81877 -1.69735,-1.01772c-0.3397,-0.09956 -0.4425,-0.065 -0.4425,0.19895c0,0.19503 -0.0648,0.26002 -0.20225,0.19503c-0.30505,-0.13003 -0.44249,0.1646 -0.1717,0.45918c0.37396,0.35959 0.30915,0.78811 -0.09908,0.62354c-0.27451,-0.09938 -0.30879,-0.06502 -0.20598,0.49355c0.03426,0.32521 0.10317,0.75373 0.10317,0.94875c0,0.19896 0.06853,0.32899 0.13707,0.32899c0.09946,0 0.13372,-0.06502 0.06481,-0.16439c-0.03426,-0.09958 0.03465,-0.19521 0.1717,-0.19521c0.10319,0 0.20225,0.13019 0.20225,0.2602c0,0.13395 -0.13371,0.26394 -0.37396,0.22961c-0.20188,0 -0.37359,-0.09566 -0.37359,-0.16067c0,-0.29853 -0.91554,-2.33001 -1.18632,-2.62834c-0.30507,-0.32525 -0.10281,-0.42461 -2.51346,1.11709c-0.37358,0.22959 -0.78181,0.72312 -0.98779,1.08274c-0.16799,0.35957 -0.43877,0.72312 -0.57585,0.78811c-0.13744,0.06502 -0.64475,0.58918 -1.08725,1.14773c-1.90334,2.45982 -1.59419,2.75442 -1.46083,7.7778c0.57621,3.80651 0.57621,3.80651 0.57621,3.80651c-1.35803,0 -1.35803,0 -1.35803,0c-1.12114,0 -1.12114,0 -1.12114,0c0.1028,-3.51212 0.1028,-3.51212 0.1028,-3.51212c0.06853,-0.29438 0.10317,-0.88749 0.13745,-1.21648c0.03426,-0.1952 -0.95353,-1.04835 -0.91926,-1.24336c0,-0.16457 1.02206,0.29461 1.02206,0.13001c0.16798,-2.39483 0,-4.30006 -0.4425,-5.31403c-0.1028,-0.62357 -0.95352,-2.62814 -1.08687,-2.62814c-0.03427,0 -0.27451,-0.1952 -0.51103,-0.42479c-0.40824,-0.42834 -0.57585,-0.45899 -2.85315,-0.58918c-2.44491,-0.13376 -2.44491,-0.13376 -2.44491,-0.13376c-0.57957,0.45899 -0.57957,0.45899 -0.57957,0.45899c-0.33932,0.2985 -0.67901,0.49354 -0.7781,0.49354c-0.20598,0 -1.0567,0.68873 -1.42657,1.08268c-0.03426,0 -0.06853,-0.03433 -0.06853,-0.06499c-0.03427,0 -0.03427,0 -0.03427,-0.03438c-0.03426,-0.09563 -0.0689,-0.1952 -0.13744,-0.29458c0.20598,-0.16457 0.37396,-0.26412 0.44249,-0.22956c0.1028,0.06499 0.20225,0 0.20225,-0.1646c0,-0.16439 -0.20225,-0.22958 -0.74383,-0.16439c-0.64848,0.0994 -0.81646,0.13376 -0.91926,0.52399c-0.16799,0.19895 -0.20225,0.49355 -0.1028,0.72314c-0.03465,0.29458 -0.03465,0.49353 0,0.49353c0.03426,0 0.06853,-0.06499 0.17134,-0.13393c0,0.03439 0.03426,0.06894 0.0689,0.09956c-0.33969,0.09938 -0.5114,0.39398 -0.47677,0.68856c-0.1717,0.13393 -0.33969,0.19895 -0.54566,0.29832c0,0 0,-0.03436 -0.03055,-0.03436c0.13372,-0.29458 0.20225,-0.62357 0.23652,-1.1171c0.06891,-0.55483 0.03426,-0.91814 -0.06853,-0.91814c-0.06854,0 -0.13744,0.13393 -0.13744,0.32893c0.03425,0.1646 -0.03055,0.32899 -0.16763,0.35962c-0.10317,0.03436 -0.1717,-0.03063 -0.1717,-0.19503c0,-0.39416 -0.13335,-0.39416 -0.43878,-0.03455c-0.13707,0.13393 -0.40786,0.2946 -0.64437,0.36354c-0.30915,0.09563 -0.40823,0.0306 -0.54567,-0.32899c-0.1028,-0.29458 -0.17134,-0.62374 -0.1028,-0.75375c0.03426,-0.16457 0.03426,-0.29832 -0.09908,-0.29832c-0.37397,0 -0.10317,-0.52419 0.33932,-0.62375zm2.92168,-7.54429c-0.20598,-0.03436 -0.37397,-0.13001 -0.44249,-0.26395c-0.03427,-0.1952 -0.06854,-0.1952 -0.06854,0c0,0.13393 -0.13744,0.22959 -0.27079,0.26395c-0.24024,0 -0.24024,0.03438 0.03427,0.1646c0.16761,0.06499 0.33932,0.16436 0.37358,0.16436c0.03054,0 0.20225,-0.09937 0.37397,-0.16436c0.30505,-0.1646 0.30505,-0.1646 0,-0.1646zm26.93534,5.28339c0.06481,0.06502 0.13335,-0.03455 0.13335,-0.19895c0,-0.13019 -0.06854,-0.26022 -0.13335,-0.26022c-0.10316,0 -0.1717,0.06501 -0.1717,0.16065c0,0.09958 0.06854,0.23351 0.1717,0.29852zm-0.24024,0.2946c-0.03426,-0.09958 -0.20225,-0.22958 -0.33969,-0.22958c-0.09908,0 -0.16762,0.13 -0.09908,0.22958c0.03054,0.09938 0.16798,0.1644 0.30505,0.1644c0.13372,0 0.16798,-0.06502 0.13372,-0.1644zm-0.30505,1.47667c0.1028,0 0.24024,-0.03436 0.24024,-0.06499c0,-0.06894 -0.13744,-0.13393 -0.24024,-0.19896c-0.13372,-0.06501 -0.23653,-0.03063 -0.23653,0.06502c0,0.09956 0.10281,0.19892 0.23653,0.19892zm0.27079,-3.11792c0.13707,-0.06504 0.20597,-0.16459 0.17134,-0.26024c-0.10281,-0.2333 -0.67866,-0.2333 -0.67866,0c0,0.26024 0.20189,0.35962 0.50732,0.26024zm-1.86534,-2.46005c-0.17171,0.09958 -0.27451,0.2946 -0.24026,0.39416c0.17171,0.26005 0.37398,0.19503 0.54531,-0.22959c0.16799,-0.39416 0.09945,-0.45915 -0.30504,-0.16457zm-0.64848,5.05381c0.88499,0.88375 0.91926,0.91814 0.91926,0.62356c0,-0.16439 -0.06854,-0.29832 -0.17171,-0.29832c-0.09907,0 -0.27078,-0.1646 -0.37358,-0.35959c-0.09909,-0.19523 -0.30505,-0.39419 -0.47304,-0.39419c-0.30878,0 -0.30878,0.03456 0.09908,0.42855zm-0.71292,-1.54563c0.20561,0 0.30507,-0.06499 0.17135,-0.09564c-0.1028,-0.06501 -0.27079,-0.06501 -0.37359,0c-0.10319,0.03064 0,0.09564 0.20224,0.09564zm-0.98407,-4.46071c0.1028,0.0994 0.40786,0.22941 0.67864,0.29461c0.47678,0.09937 0.51104,0.09937 0.24025,-0.16457c-0.30878,-0.32525 -1.1554,-0.42461 -0.91889,-0.13004zm-2.07133,-5.44401c-0.1028,0.09563 -0.13707,0.29458 -0.1028,0.42458c0.06854,0.26397 0.27079,0.03439 0.27079,-0.35959c0,-0.19896 -0.03427,-0.22959 -0.16799,-0.06499zm1.01834,7.0853c0.27079,0.16437 0.37397,0.16437 0.51141,-0.0652c0.27078,-0.35961 0.09907,-0.52398 -0.40824,-0.29457c-0.40823,0.16082 -0.40823,0.16082 -0.10317,0.35977zm-0.67864,-1.64129c0.51103,-0.35956 0.51103,-0.35956 0.1028,-0.35956c-0.27451,0 -0.47677,0.12998 -0.57957,0.35956c-0.06481,0.22941 -0.13372,0.35962 -0.09945,0.35962c0,0 0.27079,-0.19522 0.57622,-0.35962zm-0.74756,5.31778c0.23614,0.35962 0.64438,0.35962 0.51103,-0.03438c-0.03426,-0.13019 -0.0689,-0.29458 -0.0689,-0.32915c0,-0.03063 -0.13708,-0.03063 -0.30505,0.03456c-0.27451,0.06501 -0.27451,0.16439 -0.13708,0.32896zm-1.05298,-1.34668c0.27078,0.35961 0.40823,0.39397 0.71328,0.13003c0.20225,-0.16439 0.20225,-0.16439 0,-0.19503c-0.1028,0 -0.37359,-0.03456 -0.61011,-0.09958c-0.33969,-0.13001 -0.33969,-0.13001 -0.10317,0.16457zm-0.03426,-3.57712c0.1717,0 0.37396,-0.52416 0.27079,-0.68855c-0.13335,-0.16457 -0.40787,0.09937 -0.40787,0.39397c0,0.16458 0.06854,0.29458 0.13708,0.29458zm-1.66272,2.23044c-0.20598,0.13393 -0.1717,0.1646 0.09909,0.1646c0.1717,0 0.37358,-0.06522 0.44249,-0.1646c0.10279,-0.26019 -0.23653,-0.26019 -0.54158,0zm0.03427,2.88839c0.03054,0.03456 0.13334,-0.03438 0.23652,-0.19503c0.10279,-0.13393 0.40787,-0.2985 0.64437,-0.36352c0.30505,-0.0994 0.4425,-0.26004 0.4425,-0.49355c0,-0.5546 -0.47677,-0.39024 -0.98409,0.32916c-0.20597,0.36335 -0.37358,0.65795 -0.33931,0.72294zm-0.37396,-1.51107c0.30504,-0.35957 0.30504,-0.42479 0.06479,-0.52417c-0.27078,-0.13003 -0.47266,0.1646 -0.47266,0.68856c-0.03464,0.39416 -0.03464,0.39416 0.40787,-0.16439zm-0.54531,-3.87169c0.03426,0.26394 0.1028,0.22958 0.30504,-0.26022c0.24026,-0.52399 0.24026,-0.59294 0.03427,-0.59294c-0.13334,0 -0.27079,0.0994 -0.30505,0.26398c-0.06854,0.13 -0.06854,0.42853 -0.03426,0.58918zm-0.16799,-2.68944c0,0.13376 0.0648,0.45899 0.13372,0.68856c0.1028,0.45917 0.1028,0.45917 0.20598,0.06501c0.13334,-0.39395 0,-0.98313 -0.20598,-0.98313c-0.09945,0 -0.13372,0.09935 -0.13372,0.22956zm-2.37973,1.08253c-0.16798,0.22959 -0.16798,0.45918 -0.03464,1.14773c0.06891,0.49354 0.24062,0.98708 0.33969,1.08274c0.17171,0.16457 0.20598,0 0.24024,-1.01754c0,-1.24339 -0.1717,-1.63751 -0.54529,-1.21293zm0.30505,3.47774c0.03427,0.06502 0.1028,-0.06501 0.06854,-0.26021c0,-0.19896 -0.03426,-0.22959 -0.1028,-0.09938c-0.03055,0.13001 -0.03055,0.29458 0.03426,0.35959zm1.22432,-3.08359c-0.03426,0.06502 -0.03426,0.52419 0.06854,1.01754c0.10317,0.85333 0.13372,0.88768 0.16799,0.26412c0.03426,-1.01772 -0.03427,-1.51124 -0.23653,-1.28166zm-1.15578,9.2545c0.20598,-0.39416 0.54531,-1.05211 0.78182,-1.44623c0.27078,-0.42465 0.44249,-0.98316 0.51103,-1.54171c0.09945,-0.88378 0.09945,-0.88378 0.09945,-0.88378c-0.40823,0.4898 -0.40823,0.4898 -0.40823,0.4898c-0.20225,0.26397 -0.33933,0.55855 -0.33933,0.65795c0,0.2602 -0.64475,1.90146 -0.847,2.19606c-0.1028,0.16436 -0.27451,0.52791 -0.30505,0.78811c-0.17171,0.75359 0.13372,0.62356 0.50731,-0.26019zm-2.41064,3.37817c0.10317,0.65417 0.10317,0.65417 0.4425,-0.75376c0.20225,-0.75751 0.50731,-1.97021 0.71328,-2.72398c0.27078,-0.95253 0.37396,-1.74064 0.37396,-2.85398c0,-1.44609 -0.03464,-1.47672 -0.30542,-1.31212c-0.61384,0.4246 -0.95353,1.60669 -1.09061,3.90212c-0.0648,1.18232 -0.13372,2.3644 -0.20224,2.62463c-0.03427,0.26395 0,0.75749 0.06853,1.1171zm0.06891,-8.39762c0.13334,0.32524 0.27079,0.58918 0.27079,0.58918c0.03426,0 0.20187,-0.19896 0.33932,-0.45915c0.1717,-0.2294 0.44249,-0.49335 0.54531,-0.58901c0.4045,-0.2985 0.5073,-1.21664 0.16798,-1.8402c-0.27079,-0.55855 -1.01834,-1.18229 -1.15579,-0.98334c-0.06853,0.06501 -0.16761,0.68876 -0.23652,1.4117c-0.13707,1.08271 -0.13707,1.41184 0.06891,1.87081zm-0.20598,-7.51381c0.06854,0.0652 0.13707,0.03063 0.13707,-0.06873c0,-0.13021 -0.06853,-0.26024 -0.13707,-0.32525c-0.10317,-0.06893 -0.16799,-0.03438 -0.16799,0.09566c0,0.09938 0.06481,0.22959 0.16799,0.29832zm-11.00396,8.82219c0.47303,0.03455 0.47303,0.03455 0.47303,0.03455c0.47677,0 0.95353,-0.42479 0.95353,-0.78811c0,-0.22959 -0.03426,-0.22959 -1.42657,0.75355zm0.20225,-0.91815c0,0.09961 0.06854,0.19896 0.17171,0.19896c0.16762,0 0.64437,-0.58918 0.54157,-0.68855c-0.10317,-0.13393 -0.71328,0.29457 -0.71328,0.4896zm0.37396,-2.26104c0.51104,0.65435 0.74756,0.71936 1.01834,0.29457c0.27451,-0.39395 0.03427,-0.65792 -0.78219,-0.75357c-0.67865,-0.09958 -0.67865,-0.09958 -0.23615,0.459zm-0.37396,-1.84004c0,0.06873 0.24024,0.22938 0.51103,0.36332c1.25487,0.62357 1.49511,0.62357 1.46083,0.03067c0,-0.35962 -0.51103,-1.14775 -0.71328,-1.14775c-0.24024,0 -1.25858,0.62356 -1.25858,0.75377zm1.8348,4.65966c0.37359,0 0.40786,-0.0994 0.1028,-0.26005c-0.13744,-0.03455 -0.27079,0 -0.30505,0.09566c-0.06891,0.09935 0.03426,0.16439 0.20225,0.16439zm0.27079,-7.70887c-0.23653,-0.16459 -0.54196,-0.22958 -0.67902,-0.16459c-0.23652,0.13021 -0.20225,0.16459 0.13707,0.26394c0.16799,0.06522 0.51141,0.13022 0.67902,0.16085c0.20225,0 0.20225,-0.0652 -0.13707,-0.2602zm-0.03054,1.18209c0.20187,0 0.23652,-0.03438 0.09908,-0.13376c-0.09908,-0.03061 -0.23653,-0.03061 -0.30507,0.03439c-0.03426,0.06499 0.06854,0.13003 0.20599,0.09937zm0.20187,0.75378c-0.47676,0 -0.47676,0.0306 -0.20187,0.29457c0.33932,0.29458 0.4384,0.32894 0.57585,0.13001c0.23651,-0.26005 0.06853,-0.42458 -0.37398,-0.42458zm0.67903,-3.70716c-0.13745,-0.16457 -0.17171,0.13003 -0.10281,0.48963c0.03426,0.22959 0.17134,0.42851 0.24025,0.42851c0.13334,0 0.03426,-0.72312 -0.13744,-0.91814zm1.08687,4.33067c-0.06853,0.03067 0.10317,0.22959 0.30543,0.39418c0.20598,0.16439 0.37358,0.22939 0.37358,0.13001c0,-0.22956 -0.57584,-0.65809 -0.67901,-0.52419zm-0.85036,0.22959c-0.30505,0.22961 -0.13334,0.81876 0.30879,0.91816c0.23652,0.065 0.61048,0.32897 0.847,0.58916c0.20598,0.26397 0.37358,0.36354 0.37358,0.26397c0,-0.32896 -1.35766,-1.90522 -1.52937,-1.77129zm1.39231,2.72402c-0.20224,-0.52811 -0.43877,-0.78816 -0.88127,-0.95273c-0.33932,-0.13001 -0.67901,-0.19892 -0.78181,-0.16437c-0.10317,0.03436 0.30505,0.45897 0.885,0.95251c1.08687,0.85315 1.08687,0.85315 0.77809,0.16459zm1.80388,-5.05383c-0.06854,0 -0.13745,0.13003 -0.13745,0.26005c0,0.16457 0.06891,0.26397 0.13745,0.26397c0.09908,0 0.16799,-0.0994 0.16799,-0.26397c0,-0.13001 -0.06891,-0.26005 -0.16799,-0.26005zm-0.30878,2.68944c0,0.22956 0.57957,0.06501 0.81609,-0.22959c0.33933,-0.49353 0.30505,-0.62356 -0.13744,-0.62356c-0.30505,0 -0.67865,0.45919 -0.67865,0.85315zm0.9878,-7.08533c-0.10317,0.42461 -0.17171,0.78421 -0.13744,0.81877c0.10316,0.13003 0.37397,-0.85313 0.37397,-1.24729c0,-0.16439 -0.10319,0.03456 -0.23653,0.42851zm1.7659,6.62615c-0.17171,0 -0.30507,0.06522 -0.30507,0.1952c0,0.0994 0.09908,0.1646 0.20188,0.1646c0.13744,0 0.27079,-0.0652 0.30543,-0.1646c0.06854,-0.12998 -0.03464,-0.1952 -0.20224,-0.1952zm-0.40824,6.16715c0.20225,0.59311 0.50731,1.14773 0.67902,1.28166c0.17171,0.0994 0.51103,0.55857 0.71328,1.01772c0.20225,0.45899 0.40823,0.8186 0.4425,0.8186c0.16761,0 -0.17171,-3.0184 -0.40823,-3.93672c-0.20599,-0.78793 -0.2708,-1.51107 -0.23653,-2.6588c0.03054,-0.85313 0,-1.6069 -0.06853,-1.6719c-0.03427,-0.06501 -0.27079,-0.06501 -0.47677,0c-0.37397,0.13001 -0.40823,0.22959 -0.40823,0.95271c0,0.55463 -0.06855,0.85315 -0.23653,0.98313c-0.47676,0.29461 -0.44249,1.9665 0,3.2136zm-0.98407,-4.39568c-0.06854,-0.49354 -0.13707,-0.55855 -0.51103,-0.55855c-0.4425,0 -0.4425,0.03438 -0.40823,0.72294c0,0.42479 0.0689,0.91832 0.10316,1.14772c0.03427,0.22959 0.16799,0.45915 0.30507,0.49354c0.27078,0.16459 0.57584,-0.98313 0.51103,-1.80565zm-0.51103,3.31297c-0.30507,-0.39398 -0.51103,-0.8186 -0.54158,-0.91814c0,-0.13001 -0.1717,-0.45897 -0.37359,-0.75357c-0.20598,-0.29458 -0.44249,-0.6581 -0.54567,-0.78814c-0.33932,-0.45915 -0.27079,-0.06499 0.10317,0.95253c0.23652,0.68873 0.64438,1.3123 1.12114,1.83646c0.88126,0.88751 0.98408,0.72297 0.23653,-0.32913zm-0.54158,1.61062c0.36987,0 0.33933,-0.03436 -0.1717,-0.55852c-0.33933,-0.32899 -0.57585,-0.68858 -0.57585,-0.85316c0,-0.13 -0.4425,-0.59293 -0.95352,-1.01754c-0.50732,-0.4285 -0.98409,-0.85312 -1.05261,-0.98331c-0.06891,-0.16439 -0.10317,-0.16439 -0.10317,0.03063c0,0.19896 -0.16762,0.22956 -0.71328,0.13001c-0.37359,-0.06502 -0.67865,-0.06502 -0.67865,-0.03046c0,0.06501 0.13707,0.45899 0.27451,0.85312c0.23653,0.6542 0.33932,0.78816 1.08688,1.04819c0.47304,0.16457 1.22058,0.55854 1.69735,0.85312c0.4425,0.29853 0.98408,0.52791 1.19005,0.52791zm-5.30177,1.11334c0.13744,0 0.33969,-0.06499 0.47676,-0.16454c0.23653,-0.22941 0.03465,-0.22941 -0.40786,0c-0.20225,0.09955 -0.23652,0.13018 -0.0689,0.16454zm-0.37359,-0.81876c0.33933,-0.13374 1.42657,-0.26395 2.41437,-0.26395c1.86498,-0.03063 2.23893,-0.12998 1.49137,-0.32896c-0.23651,-0.06499 -0.77809,-0.22959 -1.22058,-0.39398c-0.78182,-0.29458 -2.3801,-0.1952 -2.54772,0.13379c-0.03464,0.06517 -0.20598,0.09955 -0.37396,0.06517c-0.33933,-0.09956 -0.67902,0.16441 -0.78182,0.68858c-0.13744,0.42458 0.1028,0.45915 1.01834,0.09935zm-2.7157,0.75377c0.06854,0.26397 0.40823,0.29458 0.67902,0.06499c0.16761,-0.13 0.16761,-0.19499 0,-0.39395c-0.13744,-0.19523 -0.23652,-0.19523 -0.44249,-0.03063c-0.13744,0.09566 -0.23653,0.26005 -0.23653,0.35959zm-1.08688,2.29546c0.13335,0 0.20189,0.0994 0.13335,0.2946c-0.03055,0.13393 -0.13335,0.26395 -0.20225,0.26395c-0.1028,0 -0.16762,-0.13001 -0.16762,-0.26395c0,-0.16065 0.09908,-0.2946 0.23652,-0.2946z" fill-opacity="null" stroke-opacity="null" stroke-width="2" stroke="#000" fill="none"/>
  <path id="svg_28" d="m80.19958,201.36397c-1.17358,0.17858 -2.85967,-0.93617 -1.37392,-1.94924c1.25732,-0.65881 0.05081,-2.37436 1.38038,-3.20765c1.35195,-1.8457 2.79128,-3.73242 3.46501,-5.9469c-0.09401,-1.06091 -2.19531,-2.81707 -0.06648,-3.16116c1.75536,0.20406 1.11335,-2.42397 1.72004,-3.56267c0.36481,-1.72838 0.63,-3.48559 0.56454,-5.25586c-1.22246,-0.03414 -2.46994,0.1082 -3.6684,-0.18245c-0.76447,-1.00344 1.72716,-1.50306 2.1383,-2.4088c0.86265,-1.30179 -1.26284,-2.74011 -0.35299,-4.27899c0.58116,-2.32953 3.26972,-3.83983 5.54464,-2.9865c2.35573,0.6109 4.0971,3.39369 2.97744,5.70844c-0.08939,0.44657 -0.789,1.02559 -0.55535,1.38122c1.02004,0.70789 2.20109,1.32481 2.84735,2.41786c-0.91502,0.66345 -2.44609,0.15819 -3.58774,0.47335c-1.03865,0.92128 -0.01268,2.80498 0.04052,4.06896c0.32401,1.44417 0.61006,2.90108 0.98137,4.33209c0.78058,0.30448 2.38386,0.65705 1.50437,1.92191c-1.2538,1.01785 -0.64006,2.6391 0.06729,3.7813c0.88039,1.76391 2.39167,3.11139 3.31751,4.83456c0.34382,0.79555 -0.88528,2.20452 0.64656,1.87504c1.66069,0.35277 0.66693,2.65544 -0.82537,2.1114c-5.49846,0.19361 -11.0082,0.2722 -16.50679,0.05804l-0.25829,-0.02396l0,0l0,0z" fill-opacity="null" stroke-opacity="null" stroke-width="2" stroke="#000" fill="none"/>
  <path id="svg_30" d="m174.65499,230.33343l0,2.64422c-6.71808,0.37112 -12.00967,4.30581 -12.00967,9.10504c0,-0.86454 1.46233,-1.56671 3.2631,-1.56671c1.80182,0 3.26415,0.70217 3.26415,1.56671c0,-0.86454 1.46128,-1.56671 3.2631,-1.56671c0.85716,0 1.63629,0.16447 2.21933,0.42383l0,12.89213c0,0.57671 -0.46811,1.04377 -1.04377,1.04377c-0.57671,0 -1.04482,-0.46706 -1.04482,-1.04377l0,-0.52294l-2.08859,0l0,0.52294c0,1.73013 1.40434,3.13447 3.13342,3.13447s3.13236,-1.40434 3.13236,-3.13447l0,-12.89213c0.58303,-0.26042 1.36323,-0.42383 2.22038,-0.42383c1.79971,0 3.26415,0.70217 3.26415,1.56671c0,-0.86454 1.46233,-1.56671 3.26204,-1.56671c1.80393,0 3.26626,0.70217 3.26626,1.56671c0,-4.79818 -5.29265,-8.73287 -12.01178,-9.10504l0,-2.64422l-2.08965,0z" fill-opacity="null" stroke-opacity="null" stroke-width="2" stroke="#000" fill="none"/>
  <path id="svg_31" d="m210.70191,205.03511l0,0c-7.90169,0 -14.30855,-6.21718 -14.30855,-13.88889c0,-7.67073 6.40686,-13.88889 14.30855,-13.88889l0,0c-4.50318,3.27861 -7.15378,8.42454 -7.15378,13.88889s2.6506,10.6093 7.15378,13.88889z" fill-opacity="null" stroke-opacity="null" stroke-width="2" stroke="#000" fill="none"/>
  <path id="svg_32" d="m84.21354,271.10835l-3.88528,-1.54194l3.12978,-7.88433c0.27944,-0.7036 -0.06387,-1.50202 -0.76947,-1.78146c-0.7056,-0.27944 -1.50301,0.06487 -1.78146,0.76947l-3.12978,7.88433l-4.87032,-1.93316l3.12878,-7.88433c0.28044,-0.7046 -0.06387,-1.50301 -0.76847,-1.78246c-0.7046,-0.27845 -1.50301,0.06487 -1.78146,0.76947l-3.12978,7.88433l-3.88328,-1.54094l-1.6108,4.05794l2.14574,0.85231l-2.53197,6.37832c-0.60879,1.53695 0.14272,3.27649 1.67966,3.88728l1.62278,0.64472l-0.87526,2.20262c-0.40619,1.02297 0.09481,2.18366 1.11977,2.59085l0.92816,0.36827c1.02397,0.40719 2.18366,-0.09481 2.59085,-1.11878l0.87526,-2.20262l1.85432,0.73554c1.53695,0.60979 3.27749,-0.14172 3.88827,-1.67866l2.52997,-6.37832l1.9142,0.75949l1.6098,-4.05794z" fill-opacity="null" stroke-opacity="null" stroke-width="2" stroke="#000" fill="none"/>
  <path id="svg_34" d="m131.40926,229.64592l-3.31236,-3.31236l0,-7.91093l-2.83963,0l0,5.0713l-6.6258,-6.6258l-12.77778,12.77778l3.04192,-0.07248l0,12.91841l19.3365,0l0,-12.84593l3.17714,0zm-12.77778,10.99828l-6.30992,0l0,-7.57234l6.30992,0l0,7.57234zm6.13035,-3.24529l-4.1464,0l0,-4.37248l4.1464,0l0,4.37248z" fill-opacity="null" stroke-opacity="null" stroke-width="2" stroke="#000" fill="none"/>
  <path id="svg_37" d="m130.90509,287.59073c1.01759,-3.33184 2.41038,-6.15357 3.73154,-7.55987c1.41541,-1.50663 0.78744,-2.16016 -0.67267,-0.70005c-0.61428,0.61428 -0.78979,0.16825 -0.78979,-2.00717c0,-5.19036 2.69058,-8.40201 9.16427,-10.93902c5.4777,-2.1467 9.51616,-4.5608 11.1906,-6.6895l1.36446,-1.73463l0,3.01809c0,3.73191 -1.15782,9.36993 -2.43943,11.87879c-1.35955,2.66146 -6.01959,7.57413 -8.30635,8.75665c-2.04873,1.05945 -6.42417,1.37134 -8.76263,0.62463c-1.16535,-0.37211 -1.5352,-0.0878 -2.13902,1.64433c-0.40153,1.15182 -0.73005,2.79047 -0.73005,3.64142c0,0.96607 -0.38747,1.54719 -1.03159,1.54719c-0.76503,0 -0.91473,-0.38265 -0.57932,-1.48086l0,0z" fill-opacity="null" stroke-opacity="null" stroke-width="2" stroke="#000" fill="none"/>
  <path id="svg_38" d="m70.43937,98.32459c0.1857,-1.97078 0.62102,-4.00698 1.59264,-5.69812c0.92849,-1.11059 2.4271,-1.07739 3.67868,-1.45733c-1.75364,-0.47022 -3.39058,-1.3028 -4.99673,-2.18373c-2.62895,-1.14101 -5.30494,0.50302 -7.67464,1.65639c-1.75945,0.84065 -3.49987,1.83239 -5.39443,2.24867c-1.24281,-0.86343 -0.20486,-3.31301 0.66908,-4.3473c1.10652,-1.42837 2.74442,-2.16631 3.94401,-3.47064c0.52772,-1.84233 -1.90382,-2.29559 -2.99622,-3.01948c-1.69401,-0.76694 -3.13337,-2.02312 -4.4212,-3.42565c2.99077,-0.17427 5.63638,1.68277 8.33501,2.81028c1.45965,0.52834 2.83633,1.27144 4.20112,2.00649c0.62574,-0.00316 2.74907,0.46133 2.53745,-0.25212c-1.59162,-0.07057 -1.43208,-2.1294 -0.361,-2.94566c1.57428,-1.23876 3.49349,-1.97008 4.80408,-3.61091c0.57497,-0.46153 0.87755,-1.59046 1.36349,-1.94667c2.09534,1.6375 3.32127,4.22056 4.47733,6.6701c1.88248,0.42529 3.78366,0.77025 5.70239,0.87436c1.87374,0.85667 3.47362,2.34969 4.94069,3.86593c1.11171,0.83865 1.40798,3.12067 -0.10318,3.57848c-3.72833,2.00805 -7.89136,2.62191 -11.99699,2.81489c-0.57843,-0.04078 -1.08209,0.02271 -1.08596,0.78313c-0.36163,1.083 -0.50945,2.34153 -1.19023,3.22334c-0.75133,-0.19214 -0.03955,-2.4052 -0.81117,-1.35371c-1.51777,1.64747 -3.3433,2.88302 -5.21422,3.98793c0,-0.26956 0,-0.53913 0,-0.80868l0,0z" fill-opacity="null" stroke-opacity="null" stroke-width="2" stroke="#000" fill="none"/>
  <path id="svg_39" d="m207.65302,248.64329c-0.05185,-0.078 -0.11618,-0.15444 -0.1982,-0.21309c-0.35095,-0.25573 -0.8462,-0.17773 -1.1035,0.17522c-0.25686,0.35379 -0.17567,0.84828 0.17609,1.10472c0.31961,0.23159 0.74612,0.17606 1.01827,-0.0964l-7.46756,10.29437l-2.32156,8.42676l7.28909,-4.8232l16.5998,-22.88357l-4.96954,-3.60429l-1.60196,2.20861c-0.09164,-0.3674 -0.29627,-0.71235 -0.62791,-0.95518c-0.76945,-0.55791 -1.84518,-0.38914 -2.40276,0.38186c-3.19511,4.40766 -1.42388,5.58142 -4.39026,9.98418l0,0zm-3.6558,13.77814l-3.74946,2.48117l1.19394,-4.33838l2.55551,1.85721l0,0zm4.4168,-14.00245c2.30023,-3.3985 2.08113,-4.31999 4.04973,-7.33651c0.32565,0.22348 0.6995,0.30231 1.06651,0.28296l-5.11624,7.05355l0,0z" fill-opacity="null" stroke-opacity="null" stroke-width="2" stroke="#000" fill="none"/>
 </g>
</svg>