<svg xmlns="http://www.w3.org/2000/svg" fill="none" viewBox="0 0 348 348">
  <path stroke="#000" stroke-width="2" d="M4.57 5.78h336.9v337.67H4.58V5.78z"/>
  <path stroke="#000" stroke-width="2" d="M282.73 40.55c0-8.37 6.97-15.16 15.56-15.16 4.13 0 8.09 1.6 11 4.44a14.97 14.97 0 0 1 4.56 10.72c0 8.38-6.96 15.17-15.56 15.17-8.59 0-15.56-6.8-15.56-15.17z"/>
  <circle cx="141.55" cy="144.58" r="140.18" stroke="#000" stroke-width="2"/>
  <circle cx="142" cy="145" r="7" fill="#000" stroke="#000" stroke-width="2"/>
  <path fill="#000" stroke="#000" stroke-width="2" d="m145.38 139.87 164.1 5.13-164.1 5.12v-10.25z"/>
  <path stroke="#000" stroke-width="2" d="M38.36 59.33h208.2v44.1H38.36zm76.14 172.21-51.79-29.6 51.8-29.6v59.2zm54.88-59.2 51.8 29.6-51.8 29.6v-59.2zm57.05 116.21 16.4-28.72 16.42 28.72h-32.82zm35.89 0 16.41-28.72 16.41 28.72h-32.82zm35.9 0 16.41-28.72 16.41 28.72h-32.82zm-38.97 3.58-16.41 28.72-16.41-28.72h32.82zm35.89 0-16.4 28.72-16.42-28.72h32.82zm35.9 0-16.4 28.72-16.42-28.72h32.82z"/>
</svg>
